<svg viewBox="0 0 96 96" xmlns="http://www.w3.org/2000/svg" xmlns:xlink="http://www.w3.org/1999/xlink" id="Icons_Bowl_M" overflow="hidden"><g id="Icons"><path d="M47.989 23C23.689 23 4 27.1 4 32.3L4 33C4 46.664 10.469 58.835 22 66L22 68.532C21.994 70.5324 23.4691 72.2285 25.451 72.5 32.9286 73.4708 40.4597 73.9718 48 74 55.537 73.9718 63.0648 73.4709 70.539 72.5 72.519 72.2282 73.993 70.5345 73.989 68.536L73.989 66C85.521 58.835 91.989 46.664 91.989 33L91.989 32.3C91.989 27.1 72.289 23 47.989 23ZM47.989 25C59.642 25 70.545 25.944 78.689 27.657 85.579 29.106 88.46 30.711 89.489 31.628 82.29 35.459 65.893 38 48 38 30.107 38 13.7 35.458 6.5 31.624 7.533 30.707 10.414 29.104 17.292 27.657 25.437 25.944 36.338 25 47.989 25ZM70.273 70.513C62.887 71.4728 55.4481 71.9695 48 72 40.5483 71.9697 33.1057 71.473 25.716 70.513 24.7308 70.3717 23.9994 69.5273 24 68.532L24 66.482C31.9754 67.4577 40.0012 67.9646 48.036 68 56.0433 68.0009 64.0429 67.506 71.989 66.518L71.989 68.532C71.9896 69.5273 71.2582 70.3717 70.273 70.513ZM72.934 64.3 72.771 64.4C64.5694 65.4684 56.307 66.0029 48.036 66 39.7159 65.9652 31.4059 65.4182 23.153 64.362L23.053 64.301C12.39 57.674 6.214 46.519 6.019 33.627 13.787 37.525 29.907 40 48 40 66.093 40 82.2 37.528 89.971 33.633 89.773 46.521 83.6 57.675 72.934 64.3Z" fill="#000000"/></g></svg>